<svg width="176" height="40" viewBox="0 0 176 40" fill="none" xmlns="http://www.w3.org/2000/svg">
<g clip-path="url(#clip0_2_1074)">
<path d="M12.6071 24.5874C8.98276 25.9707 7.30327 26.9434 7.30327 26.9434C6.89644 27.1537 6.38233 27.6528 6.16267 28.0536L3.39131 33.0852C3.17122 33.4848 3.34943 33.6972 3.78703 33.558C3.78703 33.558 4.89943 33.2012 5.97891 32.8858C8.60114 32.1159 13.4477 30.9755 13.4477 30.9755C13.8952 30.8706 14.4413 30.4575 14.6614 30.0575L18.4781 23.1279C18.6977 22.7271 18.5212 22.5175 18.0845 22.6602C18.0845 22.6602 15.3674 23.5326 12.6071 24.5874Z" fill="#F1511B"/>
<path d="M37.225 27.5697C37.6831 27.532 37.8776 27.1744 37.6575 26.7752L34.0032 20.1403C33.7827 19.7399 33.2306 19.4677 32.7759 19.5359L25.4545 20.774C25.0037 20.8633 24.8156 21.2628 25.0353 21.6624L28.3314 27.6484C28.552 28.0489 29.1058 28.3397 29.5639 28.2982L37.225 27.5697Z" fill="#F1511B"/>
<path d="M32.2548 16.9655L31.5877 15.754L30.3052 13.4239L28.5864 10.3035C28.3663 9.90305 27.8317 9.7041 27.4001 9.85944C22.3949 11.3109 17.4436 13.5475 15.0911 15.1039C13.7889 15.9657 12.6565 16.899 12.6565 16.899C12.3035 17.1907 11.8342 17.7557 11.6137 18.1562L8.53251 23.7507C8.31285 24.1494 8.47268 24.32 8.88977 24.127C8.88977 24.127 9.6902 23.7579 10.5864 23.3824C13.6283 22.1049 16.9565 20.9837 20.4804 20.0529C20.5475 20.0359 20.6154 20.0182 20.6821 20.0008C24.5804 18.996 31.8304 17.8252 31.8304 17.8252C32.2838 17.7524 32.4753 17.3659 32.2548 16.9655Z" fill="#F36717"/>
<path d="M14.8856 13.0984C14.8856 13.0984 18.3604 11.0544 20.7163 10.0766C22.7881 9.21611 26.4706 8.15113 26.4706 8.15113C26.9121 8.0233 27.0924 7.59198 26.8732 7.19198L23.4612 0.998118C22.7565 -0.135004 21.6685 -0.0901365 20.9941 1.13399L20.9856 1.14034L14.5672 12.7945C14.3471 13.1941 14.4907 13.3312 14.8856 13.0984Z" fill="#F68712"/>
<path d="M43.3679 37.1444L39.4311 29.9969C39.211 29.5973 38.7726 29.2862 38.4585 29.304L38.1674 29.3247C23.5888 30.3228 12.9414 32.7528 6.57638 34.614C4.68877 35.166 2.47083 35.9224 2.47083 35.9224C2.03621 36.0701 1.72724 36.153 1.27938 36.9175C1.27938 36.9175 1.24604 36.9793 1.16271 37.1325L1.16485 37.1384C0.612711 38.33 1.24433 39.2752 2.6392 39.2752L2.70886 39.2832H41.8926C43.2884 39.2832 43.9191 38.3351 43.3679 37.1444Z" fill="#F03C1F"/>
<path d="M50.8194 24.4138H55.8587L54.6172 19.9909C54.033 17.9342 53.5215 15.5046 53.339 14.0091C53.1198 15.5046 52.6091 17.9042 52.0612 19.9909L50.8194 24.4138ZM56.4792 26.7194H50.1984L48.7745 31.8297C48.6651 32.173 48.5561 32.3279 47.3865 32.3279C46.9856 32.3279 46.2185 32.2966 45.5241 32.2356L52.0249 10.8007C52.0976 10.4896 52.4997 10.3643 53.1565 10.3643C53.6672 10.3643 54.1783 10.396 54.5441 10.4578L61.0805 31.7975C61.1527 32.1416 60.9702 32.3279 59.8027 32.3279C59.3642 32.3279 58.78 32.3279 58.0497 32.2657L56.4792 26.7194Z" fill="#4F4C4D"/>
<path d="M62.5769 17.4367C64.0017 16.9063 66.412 16.3768 68.3466 16.3768C72.1799 16.3768 73.4944 17.5298 73.4944 20.5503V31.7668C73.4944 32.2659 73.4222 32.2659 70.4282 32.2659V21.2983C70.4282 19.3368 70.0624 18.5893 68.2372 18.5893C67.4697 18.5893 66.338 18.7755 65.5346 19.1501V31.7668C65.5346 32.2659 65.4615 32.2659 62.5769 32.2659V17.4367Z" fill="#4F4C4D"/>
<path d="M76.1601 10.5203C76.1601 9.36646 76.6712 9.36646 79.1178 9.36646V17.5908C80.2503 16.7506 81.8199 16.3777 83.208 16.3777C86.3481 16.3777 87.0054 17.8723 87.0054 20.489V31.7673C87.0054 32.2655 86.8597 32.2655 83.9379 32.2655V21.206C83.9379 19.8355 83.6456 18.7138 81.8567 18.7138C81.0537 18.7138 79.9947 18.9313 79.1178 19.5866V31.7673C79.1178 32.2655 79.0815 32.2655 76.1601 32.2655V10.5203Z" fill="#4F4C4D"/>
<path d="M94.8914 24.6329C93.432 24.6329 92.1897 25.0689 92.1897 27.7796C92.1897 30.0543 93.1388 30.4589 94.5641 30.4589C95.3662 30.4589 96.1692 30.2092 96.4982 29.9298C96.6081 28.9021 96.6081 26.5957 96.6081 24.914C96.1333 24.726 95.4029 24.6329 94.8914 24.6329ZM89.5234 17.2183C90.1448 16.8754 92.2991 16.3768 95.0747 16.3768C98.2136 16.3768 99.6012 17.3741 99.6012 20.1783V21.8291C99.6012 25.4117 99.5653 29.1502 99.3833 31.5188C98.3974 32.0162 96.6807 32.5779 94.3076 32.5779C91.6418 32.6079 89.0858 32.1106 89.0858 27.841C89.0858 23.5116 91.4952 22.732 93.9427 22.732C94.7452 22.732 95.8782 22.8259 96.6081 23.1375V20.6765C96.6081 19.2128 95.8047 18.8386 94.3435 18.8386C92.5183 18.8386 90.5833 19.1502 89.5234 19.5243C89.1957 19.0257 89.1226 18.4649 89.1226 18.0907C89.1226 17.7483 89.2324 17.4045 89.5234 17.2183Z" fill="#4F4C4D"/>
<path d="M102.231 17.4367C103.656 16.9063 106.065 16.3768 108.001 16.3768C111.834 16.3768 113.148 17.5298 113.148 20.5503V31.7668C113.148 32.2659 113.075 32.2659 110.081 32.2659V21.2983C110.081 19.3368 109.717 18.5893 107.89 18.5893C107.123 18.5893 105.992 18.7755 105.189 19.1501V31.7668C105.189 32.2659 105.116 32.2659 102.231 32.2659V17.4367Z" fill="#4F4C4D"/>
<path d="M140.681 31.4558C139.292 32.1106 137.211 32.5775 135.241 32.5775C130.894 32.5775 129.762 30.8962 129.762 27.4059V17.2184C129.762 16.6888 129.762 16.6888 132.83 16.6888V27.6243C132.83 29.6484 133.304 30.3655 135.277 30.3655C135.934 30.3655 136.956 30.241 137.723 29.805V17.2184C137.723 16.6888 137.76 16.6888 140.681 16.6888V31.4558Z" fill="#4F4C4D"/>
<path d="M146.267 23.8839C147.655 23.9161 149.919 23.8543 151.196 23.5427C151.343 22.9823 151.38 22.2657 151.38 21.6727C151.343 19.4301 150.869 18.5891 149.298 18.5891C147.801 18.5891 146.486 19.6794 146.267 23.8839ZM154.264 21.3925C154.264 22.7639 154.154 24.3216 153.863 25.4432C151.343 25.8483 147.984 25.9414 146.23 25.9414C146.378 29.2439 147.399 30.115 149.627 30.115C151.088 30.115 152.547 29.7429 153.79 29.1499C153.972 29.6181 154.045 30.3656 154.045 30.8634C154.045 31.8293 151.744 32.5776 149.006 32.5776C145.61 32.5776 143.164 31.362 143.164 25.2879C143.164 17.4974 146.414 16.377 149.627 16.377C152.693 16.377 154.264 18.0282 154.264 21.3925Z" fill="#4F4C4D"/>
<path d="M156.49 17.779C157.915 16.9375 159.668 16.3766 161.457 16.3766C163.319 16.3766 164.013 16.8444 164.013 17.685C164.013 18.0283 163.941 18.6505 163.685 19.1813C163.137 18.932 162.552 18.8071 161.932 18.8071C161.128 18.8071 160.216 19.0255 159.521 19.5242L159.486 31.7675C159.486 32.2657 159.449 32.2657 156.49 32.2657V17.779Z" fill="#4F4C4D"/>
<path d="M170.951 24.6329C169.491 24.6329 168.248 25.0689 168.248 27.7796C168.248 30.0543 169.198 30.4589 170.622 30.4589C171.425 30.4589 172.229 30.2092 172.558 29.9298C172.666 28.9021 172.666 26.5957 172.666 24.914C172.192 24.726 171.461 24.6329 170.951 24.6329ZM165.583 17.2183C166.204 16.8754 168.359 16.3768 171.133 16.3768C174.274 16.3768 175.661 17.3741 175.661 20.1783V21.8291C175.661 25.4117 175.624 29.1502 175.442 31.5188C174.456 32.0162 172.74 32.5779 170.366 32.5779C167.701 32.6079 165.144 32.1106 165.144 27.841C165.144 23.5116 167.555 22.732 170.001 22.732C170.804 22.732 171.938 22.8259 172.666 23.1375V20.6765C172.666 19.2128 171.864 18.8386 170.402 18.8386C168.578 18.8386 166.642 19.1502 165.583 19.5243C165.256 19.0257 165.182 18.4649 165.182 18.0907C165.182 17.7483 165.291 17.4045 165.583 17.2183Z" fill="#4F4C4D"/>
<path d="M121.607 30.0061C121.367 30.0061 121.142 29.9795 120.93 29.9325C119.477 29.6116 118.637 28.2042 118.428 25.7276C118.391 25.3132 118.373 24.8692 118.373 24.3951C118.373 24.0976 118.384 23.814 118.399 23.5405C118.486 22.0125 118.809 20.8595 119.371 20.1166C120.017 19.2607 120.95 18.8451 122.225 18.8451C122.895 18.8451 123.564 18.9018 124.221 19.0148V29.1947C124.134 29.262 124.044 29.3251 123.952 29.3848C123.301 29.8025 122.531 30.0061 121.607 30.0061ZM118.281 37.5659C117.723 37.582 117.218 37.5774 116.815 37.5376C116.649 38.0925 116.759 38.6504 116.881 39.011C116.992 39.3412 117.214 39.6459 117.567 39.7598C117.73 39.8008 117.974 39.833 118.281 39.8491C118.434 39.858 118.147 39.8478 118.331 39.8491C121.165 39.8089 122.959 39.0681 124.657 37.6332C125.207 37.1693 125.66 36.6453 126.037 36.0747C126.86 34.8345 127.284 33.3543 127.284 31.6408V17.1448L127.103 17.0948C125.598 16.6868 123.956 16.4806 122.225 16.4806C119.88 16.4806 118.115 17.1304 116.986 18.4116C115.913 19.629 115.355 21.5545 115.317 24.1268C115.317 24.2161 115.312 24.302 115.312 24.3951C115.312 25.4669 115.404 26.4243 115.579 27.2798C115.99 29.2734 116.873 30.6779 118.228 31.4863C119.142 32.032 120.267 32.3088 121.607 32.3088C122.499 32.3088 123.377 32.1505 124.221 31.836V31.9431C124.221 33.5185 123.706 34.8011 122.703 35.7687C122.622 35.8483 122.543 35.9283 122.455 36.0044C121.524 36.7909 120.808 37.3018 119.307 37.4681C118.699 37.5367 118.507 37.5592 118.281 37.5659Z" fill="#4F4C4D"/>
</g>
<defs>
<clipPath id="clip0_2_1074">
<rect width="175" height="40" fill="white" transform="translate(0.919983)"/>
</clipPath>
</defs>
</svg>
